<svg xmlns="http://www.w3.org/2000/svg" viewBox="0 0 64 64">
  <rect width="64" height="64" rx="14" fill="#0d1117"/>
  <path fill="#fff" d="M32 10c-12.2 0-22 9.8-22 22 0 9.7 6.3 17.9 15 20.8 1.1.2 1.5-.5 1.5-1.1 0-.5 0-2-.1-3.9-6.1 1.3-7.3-2.9-7.3-2.9-1-2.4-2.4-3-2.4-3-2-.1.2-.2.2-.2 2.2.2 3.3 2.2 3.3 2.2 2 3.4 5.1 2.4 6.3 1.8.2-1.5.8-2.4 1.5-3-4.9-.6-10.1-2.4-10.1-10.6 0-2.3.8-4.2 2.2-5.7-.2-.6-1-2.9.2-6 0 0 1.8-.6 5.9 2.2 1.7-.5 3.5-.7 5.3-.7s3.6.2 5.3.7c4.1-2.8 5.9-2.2 5.9-2.2 1.2 3.1.4 5.4.2 6 1.4 1.5 2.2 3.4 2.2 5.7 0 8.2-5.2 9.9-10.1 10.5.8.6 1.6 1.9 1.6 3.8 0 2.7-.1 4.9-.1 5.6 0 .6.4 1.3 1.5 1.1 8.7-2.9 15-11.1 15-20.8 0-12.2-9.8-22-22-22z"/>
</svg>
