<svg xmlns="http://www.w3.org/2000/svg" viewBox="0 0 64 64">
  <rect width="64" height="64" rx="12" fill="#f0db4f"/>
  <path fill="#323330" d="M28 18h8v22.4c0 9.4-5.4 12.9-13.4 12.9-3.8 0-6.6-.8-9-2.4l3.4-6c1.7 1 3.2 1.6 5.3 1.6 2.6 0 4.7-.9 4.7-4.7z"/>
  <path fill="#323330" d="M37.5 43.6l3.8-5c2.2 1.6 4.5 2.4 6.4 2.4 1.9 0 2.7-.7 2.7-1.8 0-1.3-1-1.7-3.5-2.5l-2.4-.7c-4.9-1.6-7.1-4-7.1-8.4 0-5.5 4.3-9 10.3-9 4.4 0 7.7 1.3 10.1 3.1l-4.1 5.2c-2.1-1.5-4.1-2.2-6-2.2-1.6 0-2.4.7-2.4 1.7 0 1.2.9 1.6 3.2 2.4l2.5.8c5.7 1.9 8.1 4.2 8.1 8.8 0 5.6-4.3 9.2-10.9 9.2-4.4 0-8.5-1.6-10.8-3.8z"/>
</svg>
