<svg xmlns="http://www.w3.org/2000/svg" viewBox="0 0 64 64">
  <rect width="64" height="64" rx="14" fill="#336791"/>
  <path fill="#fff" d="M32 12c-12 0-20 6.6-20 17.5 0 6.9 2.7 11.2 9.6 13.4-.7 2.4-1.4 4.6-2.4 7-1 2.6 2 2 3.4 1.4 2.8-1.1 6.3-3 8.9-4.4 2.8.8 5.8 1.2 8.8 1.2 12 0 20-6.6 20-17.5C60 18.6 44 12 32 12z"/>
  <path fill="#336791" d="M37 24c4.6 0 8 3.3 8 8.1 0 4.6-3 8.1-7.8 8.1-3.3 0-5.1-1.4-6-3.1l3.2-1.8c.7 1 1.5 1.7 3 1.7 1.8 0 3-1.2 3-4.7 0-3-1-4.5-2.8-4.5-1.2 0-2 .4-2.9 1.3l-3-1.8 1-9.3z"/>
  <path fill="#336791" d="M22 30.4c0 3.4-1.1 5.8-3.2 5.8-2 0-3.1-1.3-3.1-3.3 0-3.3 2.3-5.8 3.3-5.8 1.9-.1 3 1.3 3 3.3z"/>
</svg>
