<svg xmlns="http://www.w3.org/2000/svg" viewBox="0 0 64 64">
  <rect width="64" height="64" rx="12" fill="#3178c6"/>
  <path fill="#fff" d="M16 20h32v8h-12v24h-8V28H16z"/>
  <path fill="#fff" d="M36 44l4.4-5.4c2.2 1.8 4.5 2.8 6.7 2.8 1.8 0 3-.7 3-2 0-1.4-1.1-1.9-4.1-2.8l-2.7-.8c-5.6-1.6-8-4.3-8-8.9 0-5.3 4.4-9 10.6-9 3.9 0 7.7 1.2 10.8 3.6l-4.2 5.4c-2.3-1.5-4.4-2.3-6.4-2.3-1.8 0-3 .8-3 2 0 1.4 1.1 1.9 3.7 2.7l2.8.8c5.9 1.7 8.2 4.4 8.2 9 0 5.4-4.1 9.1-11.3 9.1-4.6 0-8.9-1.4-11.5-4z" opacity=".9"/>
</svg>
